<svg width="118" height="128" viewBox="0 0 118 128" fill="none" xmlns="http://www.w3.org/2000/svg">
<path d="M51.613 63.3867L35.725 102.912L66.3757 74.5013L81.9863 35.5467L51.613 63.3867ZM59.8477 74.16C56.9943 74.576 54.3437 72.608 53.9223 69.7653C53.501 66.9227 55.4797 64.2773 58.333 63.8613C61.1863 63.4453 63.8423 65.4133 64.2583 68.256C64.6743 71.104 62.701 73.744 59.8477 74.16ZM38.189 6.304C38.189 2.82667 41.8477 0 46.3383 0C50.829 0 54.4877 2.82667 54.4877 6.304C54.4877 7.664 53.9277 8.92267 52.973 9.95733C52.5997 9.21067 52.1357 8.50667 51.581 7.904C51.9117 7.41333 52.1037 6.86933 52.1037 6.304C52.1037 4.176 49.4637 2.37333 46.3383 2.37333C43.213 2.37333 40.573 4.17067 40.573 6.304C40.573 7.62133 41.581 8.81067 43.0903 9.52533C42.8237 10.2293 42.6477 11.024 42.573 11.8933C39.9703 10.8373 38.189 8.73067 38.189 6.304ZM43.5543 76.7467L23.0477 76.4853L41.885 67.568C42.0397 65.3013 42.637 63.152 43.597 61.2107L34.8823 52.1973L46.6317 56.9013C47.933 55.5573 49.4477 54.4213 51.1223 53.5573L52.221 33.1733L60.685 51.696L57.789 54.352C48.6743 55.104 42.4557 64.08 45.1117 72.8747L43.5543 76.7467ZM58.9997 11.0933C56.6423 11.0933 54.3223 11.232 52.0343 11.504C51.1703 9.22133 49.3943 7.15733 47.021 7.69067C44.6157 8.224 43.9917 10.8213 44.0237 13.0133C18.8823 19.6107 0.333008 42.4213 0.333008 69.5467C0.333008 101.829 26.5997 128 58.9997 128C91.3997 128 117.666 101.829 117.666 69.5467C117.666 37.264 91.3997 11.0933 58.9997 11.0933ZM71.741 115.595L67.853 109.84L66.8717 116.651C41.1437 120.869 17.6557 104.096 12.2477 80.1013L17.4583 76.7787L11.4157 75.2213C8.45034 50.1973 25.1063 28.48 47.8157 23.0987L51.0157 28.0853L52.1997 22.272C76.9517 18.7893 99.0903 34.5067 105.224 56.88L100.173 60.8427L106.232 61.3813C110.536 86.432 94.6957 109.328 71.741 115.595ZM93.9917 62.112L76.029 70.6933C75.8317 72.384 75.389 74.0053 74.7383 75.5093L83.8423 84.8213L71.8743 80C70.5037 81.5573 68.8503 82.864 66.9943 83.84L66.5197 104.56L57.6077 86.0267L60.8183 83.0507C69.5277 81.9573 75.3677 73.344 72.9463 64.816L74.3917 61.216L93.9917 62.112Z" fill="#2A8BD9"/>
</svg>
