<svg width="128" height="128" viewBox="0 0 128 128" fill="none" xmlns="http://www.w3.org/2000/svg">
<path d="M15.4507 22.2987C28.4107 7.216 46.1867 0 63.8347 0C86.704 0 109.355 12.1227 120.992 34.9547C106.475 34.96 83.744 34.9547 71.4293 34.9547C62.5013 34.96 56.736 34.7573 50.4907 38.0427C43.152 41.904 37.6107 49.0667 35.68 57.4773L15.4507 22.2987ZM42.704 64C42.704 75.7333 52.2453 85.28 63.9733 85.28C75.7013 85.28 85.2427 75.7333 85.2427 64C85.2427 52.2667 75.7013 42.7147 63.9733 42.7147C52.2453 42.7147 42.704 52.2667 42.704 64ZM72.2293 91.856C60.2933 95.408 46.32 91.4667 38.6667 78.2613C32.8267 68.176 17.392 41.2853 10.3733 29.0613C3.28 39.9413 0 51.9627 0 63.7653C0 92.8213 19.872 120.565 51.5893 126.795L72.2293 91.856ZM83.7387 42.7147C93.68 51.9627 95.8507 66.9387 89.1093 78.5493C84.0373 87.3013 67.84 114.635 59.9893 127.872C98.3307 130.235 128 99.2853 128 64.0213C128 57.0187 126.827 49.8347 124.32 42.7147H83.7387Z" fill="#4C8BF5"/>
</svg>
