<svg width="120" height="128" viewBox="0 0 120 128" fill="none" xmlns="http://www.w3.org/2000/svg">
<path d="M0.99707 56.816C4.78645 27.2107 25.1308 0.357333 61.6109 0C83.6377 0.416 101.757 10.32 112.528 29.2C117.946 39.056 119.634 49.4027 119.994 60.816V74.2293H39.0413C39.4122 107.36 88.1634 106.229 109.164 91.6267V118.592C100.983 123.472 85.8844 128 70.3292 128C31.6399 128 15.8804 99.1413 15.9772 79.7333C15.3806 55.8987 27.9151 40.1333 47.3887 31.168C43.2607 36.256 40.1217 41.856 38.4769 51.5307H84.1913C84.1913 51.5307 86.8627 24.4267 58.3214 24.4267C31.3927 25.3707 11.9782 40.9067 0.99707 56.816Z" fill="#0782D8"/>
</svg>
