<svg width="108" height="128" viewBox="0 0 108 128" fill="none" xmlns="http://www.w3.org/2000/svg">
<path d="M22.0003 42.6667L22.0057 93.0347C22.0057 97.6267 25.7177 101.333 30.3097 101.333H32.667V120.224C32.667 124.512 36.4377 128 40.7203 128C45.019 128 48.667 124.512 48.667 120.219V101.333H59.3337V120.224C59.3337 124.512 63.1043 128 67.3923 128C71.691 128 75.3337 124.512 75.3337 120.219V101.333L77.7017 101.328C82.2777 101.328 86.0003 97.616 86.0003 93.024V42.6667H22.0003ZM107.334 50.512C107.334 46.2187 103.627 42.6667 99.3337 42.6667C95.0403 42.6613 91.3337 46.224 91.3337 50.5173V83.0827C91.3337 87.3813 95.035 90.6667 99.3337 90.6667C103.627 90.6667 107.334 87.3867 107.334 83.0827V50.512ZM16.667 50.512C16.667 46.2187 12.9603 42.6667 8.66699 42.6667C4.37366 42.6613 0.666992 46.224 0.666992 50.5173V83.0827C0.666992 87.3813 4.36833 90.6667 8.66699 90.6667C12.9603 90.6667 16.667 87.3867 16.667 83.0827V50.512ZM69.739 11.5147L74.7523 1.6C75.115 0.896 74.651 0 73.883 0C73.531 0 73.1897 0.202667 73.0083 0.56L67.947 10.576C59.7817 6.64533 49.0457 6.24533 40.059 10.576L34.9923 0.56C34.8163 0.202667 34.475 0 34.1177 0C33.3497 0 32.8857 0.896 33.2483 1.6L38.2617 11.5147C28.4217 17.0293 22.0003 25.296 22.0003 37.328H86.0003C86.0003 25.296 79.579 17.0293 69.739 11.5147ZM40.6723 26.6667C39.2003 26.6667 38.0003 25.472 38.0003 24C38.0003 22.5387 39.2003 21.3333 40.6723 21.3333C42.1443 21.3333 43.3337 22.5387 43.3337 24C43.3337 25.472 42.1443 26.6667 40.6723 26.6667ZM67.3283 26.6667C65.8563 26.6667 64.667 25.472 64.667 24C64.667 22.5387 65.8563 21.3333 67.3283 21.3333C68.8003 21.3333 70.0003 22.5387 70.0003 24C70.0003 25.472 68.8003 26.6667 67.3283 26.6667Z" fill="#43CD43"/>
</svg>
