<svg width="128" height="128" viewBox="0 0 128 128" fill="none" xmlns="http://www.w3.org/2000/svg">
<path d="M64 0C28.656 0 0 28.656 0 64C0 99.344 28.656 128 64 128C99.344 128 128 99.344 128 64C128 28.656 99.344 0 64 0ZM106.683 46.1707C99.8773 28.4587 82.896 21.6107 77.168 21.9733C95.9893 29.312 100.491 54.288 98.8213 61.6587C97.184 53.0133 91.9627 45.568 88.8373 43.6053C107.061 86.2987 63.0507 99.4187 49.6213 84.6027C53.0827 85.4987 59.92 85.056 65.04 81.632C69.8293 78.4213 70.2827 78.2293 73.36 77.9893C77.0187 77.7067 73.1413 70.4907 65.152 71.712C61.8667 72.2133 56.448 76.08 49.792 73.5307C41.7493 70.4587 42.0053 59.4827 50.304 62.784C52.1013 60.4533 50.7733 56.048 50.7733 56.048C53.184 53.84 56.224 52.2827 58.08 51.1893C59.296 50.4693 62.5013 48.4853 62.32 44.6293C61.664 44.1173 60.6133 43.4613 58.2347 43.6C48.976 44.1867 48.3573 40.8373 47.744 39.2907C48.16 35.728 50.5387 31.1093 55.0027 28.992C48.2987 27.9627 42.8427 31.1093 40.128 35.1467C35.8133 34.2187 33.168 34.1707 28.832 34.9813C27.1467 33.7013 25.28 31.408 24.1493 28.6827C33.92 17.664 48.144 10.6667 64 10.6667C95.5307 10.6667 108.069 33.5093 106.683 46.1707Z" fill="#DF761B"/>
</svg>
