<svg width="105" height="128" viewBox="0 0 105 128" fill="none" xmlns="http://www.w3.org/2000/svg">
<path d="M104.584 93.904C100.49 106.064 88.2347 127.595 75.6097 127.829C67.2347 127.995 64.542 122.747 54.9691 122.747C45.4014 122.747 42.4066 127.669 34.4899 127.989C21.0941 128.517 0.416992 96.912 0.416992 69.3493C0.416992 44.032 17.6462 31.4827 32.6982 31.2533C40.7712 31.104 48.3962 36.8267 53.318 36.8267C58.2607 36.8267 67.5212 29.9467 77.2555 30.9547C81.3285 31.1307 92.7712 32.6347 100.115 43.632C80.6305 56.656 83.667 83.8933 104.584 93.904ZM77.3857 0C62.667 0.608 50.6566 16.4213 52.3337 29.4987C65.9378 30.5813 78.9899 14.9653 77.3857 0Z" fill="black"/>
</svg>
